<?xml version="1.0" encoding="UTF-8" standalone="no"?>
<!-- Created with Inkscape (http://www.inkscape.org/) -->

<svg
   xmlns:dc="http://purl.org/dc/elements/1.1/"
   xmlns:cc="http://creativecommons.org/ns#"
   xmlns:rdf="http://www.w3.org/1999/02/22-rdf-syntax-ns#"
   xmlns:svg="http://www.w3.org/2000/svg"
   xmlns="http://www.w3.org/2000/svg"
   version="1.1"
   width="20"
   height="20"
   viewBox="0 0 20 20"
   id="Layer_1"
   xml:space="preserve"><metadata
     id="metadata9"><rdf:RDF><cc:Work
         rdf:about=""><dc:format>image/svg+xml</dc:format><dc:type
           rdf:resource="http://purl.org/dc/dcmitype/StillImage" /><dc:title></dc:title></cc:Work></rdf:RDF></metadata><defs
     id="defs7" /><path
     d="m 15.697294,0.0087352 c 0,0 -0.47211,-0.11393933 -0.681309,0.48119018 L 13.336742,4.7667194 c 0,0 -0.31474,0.6215797 0.15737,1.2167092 l 1.206191,1.6989167 c 0,0 0.445724,0.4537227 0.104599,0.9918825 -0.341126,0.5371426 -2.124968,4.1058852 -6.7414717,6.3429612 0,0 -0.5757672,0.424221 -0.9951067,-0.198376 C 6.6480417,14.196216 5.3617531,11.930654 4.5485172,12.412862 l -4.24899288,2.151622 c 0,0 -0.36751102,0.02747 -0.2883548,0.849458 C 0.09126807,16.233898 -0.01427355,20 4.9961268,20 10.978075,20 20,10.782105 20,4.9345764 c 0,0 0,-4.92685852 -2.807219,-4.92685852 h -1.495487 z"
     id="path3"
     style="fill:#ffffff" /></svg>