<?xml version="1.0" encoding="UTF-8" standalone="no"?>
<!-- Created with Inkscape (http://www.inkscape.org/) -->

<svg
   xmlns:dc="http://purl.org/dc/elements/1.1/"
   xmlns:cc="http://creativecommons.org/ns#"
   xmlns:rdf="http://www.w3.org/1999/02/22-rdf-syntax-ns#"
   xmlns:svg="http://www.w3.org/2000/svg"
   xmlns="http://www.w3.org/2000/svg"
   version="1.1"
   width="20"
   height="20"
   viewBox="0 0 20 19.999999"
   id="Layer_1"
   xml:space="preserve"><metadata
     id="metadata9"><rdf:RDF><cc:Work
         rdf:about=""><dc:format>image/svg+xml</dc:format><dc:type
           rdf:resource="http://purl.org/dc/dcmitype/StillImage" /><dc:title></dc:title></cc:Work></rdf:RDF></metadata><defs
     id="defs7" /><path
     d="M 10.000994,5 C 7.239459,5 5,7.237915 5,10 5,12.762085 7.239459,15 10.000994,15 12.760541,15 15,12.762085 15,10 15,7.237915 12.761535,5 10.000994,5 z m 0,8.594588 c -1.9848842,0 -3.5928794,-1.608313 -3.5928794,-3.593594 0,-1.0274518 0.4315831,-1.9564347 1.1247016,-2.6109008 0.00199,-0.00298 0.00597,-0.00696 0.00796,-0.00796 0.032816,-0.030833 0.065632,-0.060672 0.097454,-0.089517 0.00796,-0.00398 0.013922,-0.00995 0.019889,-0.015914 0.031822,-0.026855 0.062649,-0.054705 0.09646,-0.08156 0.00597,-0.00398 0.013922,-0.00995 0.019889,-0.013925 0.1392204,-0.1104038 0.2883851,-0.2118559 0.4455052,-0.3003779 0.011933,-0.00796 0.025855,-0.015914 0.038783,-0.023871 0.029833,-0.016909 0.058671,-0.032823 0.089499,-0.046748 0.0179,-0.011936 0.036794,-0.019893 0.054694,-0.028844 0.02685,-0.013925 0.056683,-0.028844 0.085521,-0.04078 0.020883,-0.00995 0.040772,-0.019893 0.061655,-0.028844 0.02685,-0.011936 0.056683,-0.022877 0.083532,-0.034812 0.022872,-0.00995 0.046738,-0.019893 0.06961,-0.026855 0.02685,-0.011935 0.054694,-0.020887 0.079554,-0.030833 0.028839,-0.00995 0.056683,-0.019893 0.085521,-0.028844 0.034805,-0.011936 0.06961,-0.022877 0.1044153,-0.032823 0.038783,-0.011936 0.077566,-0.022876 0.1143596,-0.032823 0.022872,-0.00597 0.046738,-0.00995 0.067621,-0.015914 0.034805,-0.00895 0.065632,-0.016909 0.09646,-0.022876 0.022872,-0.00597 0.048727,-0.011936 0.071599,-0.015914 0.030827,-0.00597 0.063644,-0.011936 0.095465,-0.015914 0.022872,-0.00398 0.048727,-0.00995 0.071599,-0.011935 0.032816,-0.00398 0.065632,-0.00995 0.099443,-0.013925 0.022872,-0.00199 0.046738,-0.00398 0.067621,-0.00597 0.036794,-0.00597 0.075577,-0.00796 0.1123708,-0.00995 0.019889,0 0.039777,0 0.058671,-0.00199 0.056683,-0.00199 0.1123707,-0.00398 0.1690533,-0.00398 0,0 0.00199,0 0.00398,0 l 0,0 0,0 c 0.05867,0 0.11436,0.00199 0.173031,0.00398 0.0179,0.00199 0.03481,0.00199 0.0527,0.00398 0.04077,0.00199 0.07956,0.00398 0.120326,0.00995 0.01989,0.00199 0.03878,0.00398 0.06066,0.00597 0.03679,0.00398 0.07359,0.00995 0.108393,0.013925 0.02088,0.00199 0.04276,0.00796 0.06265,0.00995 0.03679,0.00597 0.07359,0.013925 0.108393,0.019893 0.01989,0.00398 0.03878,0.00796 0.05867,0.011936 0.03978,0.00597 0.07856,0.015914 0.117343,0.02586 0.01591,0.00398 0.02884,0.00796 0.04475,0.00995 0.05469,0.015914 0.106404,0.028844 0.161098,0.046748 0,0 0,0.00199 0.002,0.00199 0.0527,0.014919 0.103421,0.031828 0.154137,0.049731 0.01591,0.00796 0.03083,0.013925 0.04674,0.017903 0.03679,0.01293 0.0716,0.028844 0.106405,0.041774 0.0179,0.00796 0.03679,0.015914 0.05469,0.022876 0.03282,0.015914 0.06364,0.028844 0.09547,0.044758 0.01989,0.00796 0.03878,0.015914 0.05867,0.026855 0.02884,0.013925 0.06066,0.028844 0.09149,0.046748 0.01591,0.00895 0.03381,0.018898 0.0537,0.02785 0.03083,0.017903 0.06265,0.036801 0.09547,0.056694 0.01492,0.00796 0.02884,0.017903 0.04375,0.024866 0.04674,0.029839 0.0895,0.056694 0.134249,0.085538 0.01392,0.00995 0.02685,0.019893 0.03878,0.028844 0.03083,0.021882 0.06165,0.043764 0.09149,0.06664 0.01989,0.013925 0.03878,0.026855 0.05668,0.042769 0.02287,0.017903 0.04674,0.034812 0.06961,0.052715 0.02088,0.017903 0.04077,0.034812 0.06066,0.052715 0.01989,0.017903 0.04077,0.032823 0.06265,0.050726 0.01989,0.019893 0.03878,0.036801 0.06066,0.056694 0.0179,0.017903 0.03679,0.034812 0.05469,0.052715 0.02088,0.019893 0.04077,0.038791 0.06066,0.060672 0.01492,0.015914 0.03083,0.032823 0.04773,0.048737 0.01989,0.022876 0.04077,0.042769 0.06066,0.065645 0.004,0.00398 0.006,0.00597 0.0099,0.00995 0.0527,0.058683 0.101432,0.1183609 0.151154,0.1830117 0.0099,0.013925 0.02088,0.026855 0.03282,0.04078 0.01989,0.026855 0.03878,0.054705 0.05867,0.08156 0.01193,0.014919 0.02287,0.030833 0.03282,0.046747 0.01989,0.026855 0.03878,0.055699 0.05668,0.083549 0.0099,0.015914 0.02088,0.030833 0.03083,0.048737 0.0179,0.026855 0.03679,0.056694 0.05469,0.087527 0.007,0.01293 0.01492,0.028844 0.02287,0.041774 0.01989,0.032823 0.03679,0.063656 0.05469,0.097474 0.006,0.00995 0.0099,0.019892 0.01591,0.028844 0.05967,0.1163716 0.114359,0.2377161 0.162092,0.3620447 0.004,0.00796 0.006,0.017903 0.0099,0.024866 0.01392,0.036801 0.02685,0.073603 0.03878,0.1104038 0.006,0.013925 0.0099,0.028844 0.01591,0.042769 0.0099,0.034812 0.02088,0.071613 0.03083,0.1064253 0.006,0.015914 0.0099,0.030833 0.01392,0.046748 0.0099,0.036801 0.01989,0.071613 0.02884,0.1084146 0.002,0.00398 0.002,0.00995 0.004,0.015914 l 0,0 c 0.06364,0.2685498 0.09944,0.5480406 0.09944,0.8374776 0,1.98528 -1.610979,3.594589 -3.593875,3.594589 z"
     id="path3"
     style="fill:#c94f4f" /></svg>