<?xml version="1.0" encoding="UTF-8" standalone="no"?>
<!-- Created with Inkscape (http://www.inkscape.org/) -->

<svg
   xmlns:dc="http://purl.org/dc/elements/1.1/"
   xmlns:cc="http://creativecommons.org/ns#"
   xmlns:rdf="http://www.w3.org/1999/02/22-rdf-syntax-ns#"
   xmlns:svg="http://www.w3.org/2000/svg"
   xmlns="http://www.w3.org/2000/svg"
   version="1.1"
   width="100%"
   height="100%"
   viewBox="0 0 20 20"
   id="Layer_1"
   xml:space="preserve"><metadata
     id="metadata13"><rdf:RDF><cc:Work
         rdf:about=""><dc:format>image/svg+xml</dc:format><dc:type
           rdf:resource="http://purl.org/dc/dcmitype/StillImage" /><dc:title></dc:title></cc:Work></rdf:RDF></metadata><defs
     id="defs11" /><path
     d="M 9.9984293,5 C 7.2992775,5 5,7.3 5,10 5,12.8 7.2992775,15 9.9984293,15 12.79755,15 14.996859,12.7 14.996859,10 15.096827,7.3 12.79755,5 9.9984293,5 z m 0,8.6 C 7.9990576,13.6 6.3995602,12 6.3995602,10 c 0,-1 0.3998743,-2 1.0996544,-2.6 0,0 0,0 0,0 0,0 0.099969,-0.1 0.099969,-0.1 0,0 0,0 0,0 0,0 0.099969,-0.1 0.099969,-0.1 0,0 0,0 0,0 C 7.899089,7.1 8.0990262,7 8.1989947,6.9 c 0,0 0,0 0,0 0,0 0.099969,0 0.099969,0 0,0 0,0 0.099969,0 0,0 0.099969,0 0.099969,0 0,0 0,0 0.099969,0 0,0 0.099969,0 0.099969,0 0,0 0,0 0.099969,0 0,0 0.099969,0 0.099969,0 0,0 0.099969,0 0.099969,0 0,0 0.099969,0 0.099969,0 0,0 0.099969,0 0.099969,0 0,0 0,0 0.099969,0 0,0 0.099969,0 0.099969,0 0,0 0,0 0.099969,0 0,0 0.099969,0 0.099969,0 0,0 0,0 0.099969,0 0,0 0.099969,0 0.099969,0 0,0 0,0 0.099969,0 0,0 0.099969,0 0.099969,0 0,0 0,0 0.099969,0 0.09997,0 0.09997,0 0.199937,0 0,0 0,0 0,0 l 0,0 0,0 c 0.09997,0 0.09997,0 0.199937,0 0,0 0,0 0.09997,0 0,0 0.09997,0 0.09997,0 0,0 0,0 0.09997,0 0,0 0.09997,0 0.09997,0 0,0 0,0 0.09997,0 0,0 0.09997,0 0.09997,0 0,0 0,0 0.09997,0 0,0 0.09997,0 0.09997,0 0,0 0,0 0,0 0.09997,0 0.09997,0 0.199937,0 0,0 0,0 0,0 0.09997,0 0.09997,0 0.199937,0.1 0,0 0,0 0,0 0,0 0.09997,0 0.09997,0 0,0 0,0 0.09997,0 0,0 0.09997,0 0.09997,0 0,0 0,0 0.09997,0 0,0 0.09997,0 0.09997,0 0,0 0,0 0.09997,0 0,0 0.09997,0 0.09997,0.1 0,0 0,0 0,0 C 11.997801,7 11.997801,7 11.997801,7 c 0,0 0,0 0,0 0,0 0.09997,0 0.09997,0.1 0,0 0,0 0.09997,0 0,0 0,0 0.09997,0.1 0,0 0,0 0.09997,0.1 0,0 0,0 0.09997,0.1 0,0 0,0 0.09997,0.1 0,0 0,0 0.09997,0.1 0,0 0,0 0.09997,0.1 0,0 0,0 0.09997,0.1 0,0 0,0 0.09997,0.1 0,0 0,0 0,0 0.09997,0.1 0.09997,0.1 0.199937,0.2 0,0 0,0 0,0 0,0 0,0.1 0.09997,0.1 0,0 0,0 0,0 C 12.997487,8 12.997487,8 13.097455,8.1 c 0,0 0,0 0,0 0,0 0,0.1 0.09997,0.1 0,0 0,0 0,0 0,0 0,0.1 0.09997,0.1 0,0 0,0 0,0 0.09997,0.1 0.09997,0.2 0.199937,0.4 0,0 0,0 0,0 0,0 0,0.1 0,0.1 0,0 0,0 0,0 0,0 0,0.1 0,0.1 0,0 0,0 0,0 0,0 0,0.1 0,0.1 0,0 0,0 0,0 l 0,0 c 0.09997,0.5 0.09997,0.7 0.09997,1 0,2 -1.599497,3.6 -3.5988687,3.6 z"
     id="path3"
     style="fill:#ffffff" /><g
     transform="matrix(0.99968586,0,0,1,5,5)"
     id="g5"><polyline
       points="7.2,1.8 1.8,7.2 2.8,8.3 8.3,2.8  "
       id="polyline7"
       style="fill:#ffffff" /></g></svg>