<?xml version="1.0" encoding="UTF-8" standalone="no"?>
<!-- Created with Inkscape (http://www.inkscape.org/) -->

<svg
   xmlns:dc="http://purl.org/dc/elements/1.1/"
   xmlns:cc="http://creativecommons.org/ns#"
   xmlns:rdf="http://www.w3.org/1999/02/22-rdf-syntax-ns#"
   xmlns:svg="http://www.w3.org/2000/svg"
   xmlns="http://www.w3.org/2000/svg"
   version="1.1"
   width="20"
   height="20"
   viewBox="0 0 20.000001 20.000001"
   id="Layer_1"
   xml:space="preserve"><metadata
     id="metadata13"><rdf:RDF><cc:Work
         rdf:about=""><dc:format>image/svg+xml</dc:format><dc:type
           rdf:resource="http://purl.org/dc/dcmitype/StillImage" /><dc:title></dc:title></cc:Work></rdf:RDF></metadata><defs
     id="defs11" /><path
     d="m 10.000001,4.0000004 c -3.3131841,0 -6.0000008,2.6852313 -6.0000008,6.0005976 0,3.314171 2.6868167,5.999403 6.0000008,5.999403 3.313183,0 6,-2.685232 6,-5.999403 0,-3.3153663 -2.686817,-6.0005976 -6,-6.0005976 z M 5.6894018,9.9994037 c 0,-2.3832918 1.9292107,-4.3130781 4.3105992,-4.3130781 2.381387,0 4.310598,1.9297863 4.310598,4.3130781 H 5.6894018 z"
     id="path5"
     style="fill:#cebf43" /><path
     d="m 18.215773,10.000595 c 0,2.270322 -0.917093,4.319439 -2.405138,5.809598 -1.490425,1.48778 -3.538718,2.405898 -5.809445,2.405898 -2.270727,0 -4.3202096,-0.918118 -5.8094449,-2.405898 -1.4892352,-1.490159 -2.4075176,-3.539276 -2.4075176,-5.809598 0,-2.2715111 0.9182824,-4.3194388 2.4075176,-5.8095977 C 5.6809804,2.7020278 7.730463,1.7839092 10.00119,1.7839092 c 2.270727,0 4.31902,0.9181186 5.809445,2.4070881 1.486856,1.4889696 2.405138,3.5380866 2.405138,5.8095977 h 1.784228 C 19.998811,4.4776121 15.523969,0 10.00119,0 4.4772215,0 0,4.4776121 0,10.000595 c 0,5.522983 4.4772215,9.998216 10.00119,9.999406 5.523968,-0.0012 9.997621,-4.478802 9.998811,-9.999406 h -1.784228 z"
     id="path7"
     style="fill:#cebf43" /></svg>