<?xml version="1.0" encoding="UTF-8" standalone="no"?>
<!-- Generator: Adobe Illustrator 18.1.0, SVG Export Plug-In . SVG Version: 6.00 Build 0)  -->

<svg
   xmlns:dc="http://purl.org/dc/elements/1.1/"
   xmlns:cc="http://creativecommons.org/ns#"
   xmlns:rdf="http://www.w3.org/1999/02/22-rdf-syntax-ns#"
   xmlns:svg="http://www.w3.org/2000/svg"
   xmlns="http://www.w3.org/2000/svg"
   xmlns:sodipodi="http://sodipodi.sourceforge.net/DTD/sodipodi-0.dtd"
   xmlns:inkscape="http://www.inkscape.org/namespaces/inkscape"
   version="1.1"
   id="Layer_1"
   x="0px"
   y="0px"
   viewBox="0 0 20 20"
   enable-background="new 0 0 10 10"
   xml:space="preserve"
   inkscape:version="0.48.5 r10040"
   width="100%"
   height="100%"
   sodipodi:docname="dot_busy.svg"
   inkscape:export-filename="/home/marco/go/src/github.com/codedust/WebTox/html/img/toxui/dot_busy.png"
   inkscape:export-xdpi="90"
   inkscape:export-ydpi="90"><metadata
     id="metadata9"><rdf:RDF><cc:Work
         rdf:about=""><dc:format>image/svg+xml</dc:format><dc:type
           rdf:resource="http://purl.org/dc/dcmitype/StillImage" /><dc:title></dc:title></cc:Work></rdf:RDF></metadata><defs
     id="defs7" /><sodipodi:namedview
     pagecolor="#ffffff"
     bordercolor="#666666"
     borderopacity="1"
     objecttolerance="10"
     gridtolerance="10"
     guidetolerance="10"
     inkscape:pageopacity="0"
     inkscape:pageshadow="2"
     inkscape:window-width="1878"
     inkscape:window-height="1032"
     id="namedview5"
     showgrid="false"
     inkscape:zoom="23.6"
     inkscape:cx="5.0847458"
     inkscape:cy="5"
     inkscape:window-x="42"
     inkscape:window-y="0"
     inkscape:window-maximized="1"
     inkscape:current-layer="Layer_1" /><path
     d="m 13.514851,6.4851485 c -1.980198,-1.980198 -5.0495045,-1.980198 -7.0297025,0 -1.980198,1.980198 -1.980198,5.0495045 0,7.0297025 1.980198,1.980199 5.0495045,1.980199 7.0297025,0 1.980199,-1.980198 1.980199,-5.1485144 0,-7.0297025 z M 7.5742574,7.4752475 C 8.7623762,6.2871287 10.544554,6.1881188 11.930693,6.980198 L 7.1782178,11.831683 C 6.2871287,10.445545 6.3861386,8.6633663 7.5742574,7.4752475 z M 8.1683168,12.821782 12.920792,8.0693069 c 0.891089,1.3861386 0.693069,3.1683171 -0.495049,4.3564361 -1.188119,1.188118 -2.8712876,1.287128 -4.2574262,0.396039 z"
     id="path3"
     inkscape:connector-curvature="0"
     style="fill:#c94f50" /></svg>