<?xml version="1.0" encoding="UTF-8" standalone="no"?>
<svg
   xmlns:dc="http://purl.org/dc/elements/1.1/"
   xmlns:cc="http://creativecommons.org/ns#"
   xmlns:rdf="http://www.w3.org/1999/02/22-rdf-syntax-ns#"
   xmlns:svg="http://www.w3.org/2000/svg"
   xmlns="http://www.w3.org/2000/svg"
   height="100%"
   width="100%"
   xml:space="preserve"
   enable-background="new 0 0 16 16"
   viewBox="0 0 20 20"
   y="0px"
   x="0px"
   id="Layer_1"
   version="1.1"><metadata
     id="metadata13"><rdf:RDF><cc:Work
         rdf:about=""><dc:format>image/svg+xml</dc:format><dc:type
           rdf:resource="http://purl.org/dc/dcmitype/StillImage" /><dc:title></dc:title></cc:Work></rdf:RDF></metadata><defs
     id="defs11" /><path
     style="fill:#c94f50"
     id="path3"
     d="m 13.5,6.5 c -2,-2 -5.1,-2 -7.1,0 -2,2 -2,5.1 0,7.1 2,2 5.1,2 7.1,0 2,-2 2,-5.2 0,-7.1 z m -6,1 C 8.7,6.3 10.5,6.2 11.9,7 L 7.1,11.9 C 6.2,10.5 6.3,8.7 7.5,7.5 z m 0.6,5.4 4.8,-4.8 c 0.9,1.4 0.7,3.2 -0.5,4.4 -1.2,1.2 -2.9,1.3 -4.3,0.4 z" /><g
     transform="translate(2,2)"
     id="g5"><path
       style="fill:#c94f50"
       id="path7"
       d="m 8,1.5 c 3.6,0 6.5,2.9 6.5,6.5 0,3.6 -2.9,6.5 -6.5,6.5 C 4.4,14.5 1.5,11.6 1.5,8 1.5,4.4 4.4,1.5 8,1.5 M 8,0 C 3.6,0 0,3.6 0,8 c 0,4.4 3.6,8 8,8 4.4,0 8,-3.6 8,-8 C 16,3.6 12.4,0 8,0 z" /></g></svg>