<?xml version="1.0" encoding="UTF-8" standalone="no"?>
<!-- Created with Inkscape (http://www.inkscape.org/) -->

<svg
   xmlns:dc="http://purl.org/dc/elements/1.1/"
   xmlns:cc="http://creativecommons.org/ns#"
   xmlns:rdf="http://www.w3.org/1999/02/22-rdf-syntax-ns#"
   xmlns:svg="http://www.w3.org/2000/svg"
   xmlns="http://www.w3.org/2000/svg"
   version="1.1"
   width="20"
   height="20"
   viewBox="0 0 20.000001 20"
   id="Layer_1"
   xml:space="preserve"><metadata
     id="metadata11"><rdf:RDF><cc:Work
         rdf:about=""><dc:format>image/svg+xml</dc:format><dc:type
           rdf:resource="http://purl.org/dc/dcmitype/StillImage" /><dc:title></dc:title></cc:Work></rdf:RDF></metadata><defs
     id="defs9" /><path
     d="m 10.001194,3.9999994 c -3.3138428,0 -6.0011938,2.6854988 -6.0011938,6.0000004 C 4.0000002,13.314501 6.6873512,16 10.001194,16 c 3.311456,0 5.998807,-2.685499 5.998807,-6.0000002 0,-3.3145016 -2.686158,-6.0000004 -5.998807,-6.0000004 z m 0,10.3123136 c -2.3818619,0 -4.3114563,-1.929978 -4.3114563,-4.3123132 0,-1.2329424 0.5178998,-2.3477219 1.3496421,-3.1330812 0.00239,-0.00239 0.00716,-0.00716 0.00955,-0.00954 0.039379,-0.037001 0.07876,-0.071614 0.115752,-0.1062264 0.00955,-0.00478 0.016706,-0.01194 0.023867,-0.019098 0.039379,-0.032226 0.076373,-0.065646 0.1169448,-0.097872 0.00716,-0.00478 0.016706,-0.01194 0.023867,-0.01671 0.1682577,-0.132489 0.3472555,-0.2542316 0.5357996,-0.3616515 0.01432,-0.00954 0.029833,-0.019098 0.04654,-0.027451 0.034606,-0.021484 0.070406,-0.039386 0.1073988,-0.056098 0.02148,-0.014322 0.044153,-0.023872 0.065633,-0.034613 0.03222,-0.01671 0.06802,-0.034613 0.1026252,-0.048936 0.02506,-0.01194 0.048926,-0.023872 0.07518,-0.034613 0.031027,-0.014322 0.065633,-0.028645 0.097853,-0.042967 0.027446,-0.01194 0.056086,-0.023872 0.083532,-0.032226 0.03222,-0.014322 0.065633,-0.025064 0.095466,-0.037001 0.034606,-0.01194 0.06802,-0.023872 0.1026252,-0.034613 0.041766,-0.014322 0.083532,-0.027452 0.1252982,-0.039386 0.047732,-0.014322 0.094272,-0.028645 0.1384248,-0.040582 0.027446,-0.00716 0.056086,-0.01194 0.081145,-0.019098 0.039379,-0.00954 0.076373,-0.019098 0.1145592,-0.025064 0.027448,-0.00716 0.058468,-0.014322 0.085916,-0.019097 0.036989,-0.00716 0.076375,-0.014322 0.114558,-0.019098 0.027448,-0.00478 0.058468,-0.01194 0.085916,-0.014322 0.039377,-0.00478 0.078763,-0.01194 0.1193316,-0.01671 0.027449,-0.00239 0.05609,-0.00478 0.081151,-0.00716 0.045346,-0.00478 0.091885,-0.00716 0.136038,-0.00954 0.023867,-0.00239 0.04654,-0.00239 0.070406,-0.00478 0.068018,-0.00239 0.1348451,-0.00478 0.2028645,-0.00478 0,0 0.00241,0 0.00481,0 l 0,0 0,0 c 0.0704,0 0.137232,0.00239 0.207637,0.00478 0.02029,0.00239 0.04057,0.00239 0.06205,0.00478 0.04892,0.00239 0.09547,0.00478 0.144393,0.01194 0.02387,0.00239 0.04654,0.00478 0.07279,0.00716 0.04415,0.00478 0.08831,0.01194 0.130071,0.01671 0.02506,0.00239 0.05131,0.00954 0.07518,0.01194 0.04415,0.00716 0.08831,0.01671 0.130072,0.023872 0.02387,0.00478 0.04654,0.00954 0.0704,0.014322 0.04774,0.00716 0.09427,0.019098 0.140812,0.029839 0.01909,0.00478 0.03581,0.00954 0.0537,0.01194 0.06563,0.019098 0.127684,0.034613 0.193317,0.056096 0,0 0,0.00239 0.0024,0.00239 0.06324,0.019098 0.124104,0.039386 0.184963,0.060871 0.0179,0.00954 0.03698,0.015516 0.05609,0.020291 0.04415,0.01671 0.08592,0.035807 0.127685,0.051323 0.02148,0.00954 0.04415,0.019098 0.06563,0.028645 0.03937,0.019098 0.07638,0.034613 0.114564,0.05371 0.02387,0.00954 0.04654,0.019098 0.0704,0.032226 0.03461,0.01671 0.07279,0.034613 0.109788,0.056096 0.02148,0.00954 0.04176,0.021484 0.06563,0.032226 0.03698,0.021484 0.07518,0.044162 0.114552,0.068033 0.01909,0.00954 0.03461,0.021484 0.0537,0.029839 0.05609,0.034613 0.1074,0.068033 0.161097,0.1026456 0.0167,0.01194 0.03222,0.023872 0.04654,0.034613 0.03698,0.025064 0.07518,0.051323 0.109788,0.078775 0.02387,0.01671 0.04654,0.032226 0.06802,0.051323 0.02744,0.021484 0.05609,0.041774 0.08353,0.063258 0.02506,0.021484 0.04892,0.041774 0.07279,0.063258 0.02387,0.021484 0.04892,0.039386 0.07518,0.060871 0.02387,0.023872 0.04654,0.044162 0.07279,0.068033 0.02148,0.021484 0.04415,0.041774 0.06563,0.063258 0.02506,0.023872 0.04892,0.046548 0.07279,0.072806 0.02148,0.021484 0.03937,0.041774 0.06085,0.060872 0.02387,0.027451 0.04892,0.051323 0.07279,0.078775 0.0048,0.00478 0.0071,0.00716 0.01188,0.01194 0.06324,0.07042 0.12172,0.1420331 0.181385,0.2196142 0.01188,0.01671 0.02506,0.032226 0.03937,0.048936 0.02387,0.032226 0.04654,0.065646 0.0704,0.097871 0.01432,0.019097 0.02744,0.037001 0.03937,0.056096 0.02387,0.032226 0.04654,0.068033 0.06802,0.1002588 0.01188,0.019097 0.02506,0.037001 0.03698,0.058484 0.02148,0.032226 0.04415,0.068033 0.06563,0.1050324 0.0095,0.01671 0.01909,0.034613 0.02744,0.051323 0.02387,0.039386 0.04415,0.076387 0.06563,0.1169688 0.0071,0.01194 0.01188,0.023872 0.01909,0.034613 0.07277,0.1396451 0.137202,0.2840652 0.195676,0.4332596 0.0048,0.00954 0.0071,0.021484 0.01188,0.029839 0.0167,0.044162 0.03222,0.088322 0.04654,0.1324847 0.0071,0.01671 0.01188,0.034613 0.01909,0.051323 0.01188,0.041774 0.02506,0.085937 0.03698,0.1277104 0.0071,0.019098 0.01188,0.037 0.0167,0.056096 0.01188,0.04416 0.02387,0.085932 0.03461,0.130098 0.0024,0.0048 0.0024,0.01188 0.0048,0.019092 l 0,0 c 0.07638,0.32226 0.119328,0.6576492 0.119328,1.0049738 -0.0083,2.381142 -1.940334,4.31112 -4.319809,4.31112 z"
     id="path3"
     style="fill:#c94f4f" /><path
     d="M 10.00119,-9.9999999e-7 C 4.4784111,0.00118834 0,4.479067 0,9.9999991 0,15.523311 4.4784111,19.998811 10.00119,20 15.525158,19.998811 19.998812,15.520932 20.000001,9.9999991 19.998812,4.479067 15.525158,0.00118834 10.00119,-9.9999999e-7 z M 15.810635,15.809943 c -1.490425,1.487868 -3.538718,2.406042 -5.809445,2.406042 -2.2707269,0 -4.3202096,-0.918174 -5.8106343,-2.406042 C 2.7025099,14.319695 1.7842275,12.270456 1.7842275,9.9999991 1.7842275,7.729543 2.7025099,5.680304 4.1905557,4.1912458 5.6809804,2.7021876 7.7304631,1.7852037 10.00119,1.7840144 c 2.270727,0.00119 4.31902,0.9181732 5.809445,2.4060421 1.488046,1.4902475 2.405138,3.5394865 2.405138,5.8099426 0,2.2704569 -0.917092,4.3196959 -2.405138,5.8099439 z"
     id="path5"
     style="fill:#c94f4f" /></svg>