<?xml version="1.0" encoding="UTF-8" standalone="no"?>
<!-- Generator: Adobe Illustrator 18.1.0, SVG Export Plug-In . SVG Version: 6.00 Build 0)  -->

<svg
   xmlns:dc="http://purl.org/dc/elements/1.1/"
   xmlns:cc="http://creativecommons.org/ns#"
   xmlns:rdf="http://www.w3.org/1999/02/22-rdf-syntax-ns#"
   xmlns:svg="http://www.w3.org/2000/svg"
   xmlns="http://www.w3.org/2000/svg"
   xmlns:sodipodi="http://sodipodi.sourceforge.net/DTD/sodipodi-0.dtd"
   xmlns:inkscape="http://www.inkscape.org/namespaces/inkscape"
   version="1.1"
   id="Layer_1"
   x="0px"
   y="0px"
   viewBox="0 0 20 20"
   enable-background="new 0 0 16 16"
   xml:space="preserve"
   inkscape:version="0.48.5 r10040"
   width="100%"
   height="100%"
   sodipodi:docname="dot_busy_notification.svg"
   inkscape:export-filename="/home/marco/go/src/github.com/codedust/WebTox/html/img/toxui/dot_busy_notification.png"
   inkscape:export-xdpi="90"
   inkscape:export-ydpi="90"><metadata
     id="metadata13"><rdf:RDF><cc:Work
         rdf:about=""><dc:format>image/svg+xml</dc:format><dc:type
           rdf:resource="http://purl.org/dc/dcmitype/StillImage" /><dc:title></dc:title></cc:Work></rdf:RDF></metadata><defs
     id="defs11" /><sodipodi:namedview
     pagecolor="#ffffff"
     bordercolor="#666666"
     borderopacity="1"
     objecttolerance="10"
     gridtolerance="10"
     guidetolerance="10"
     inkscape:pageopacity="0"
     inkscape:pageshadow="2"
     inkscape:window-width="1878"
     inkscape:window-height="1032"
     id="namedview9"
     showgrid="false"
     inkscape:zoom="14.75"
     inkscape:cx="8.1355932"
     inkscape:cy="8"
     inkscape:window-x="42"
     inkscape:window-y="0"
     inkscape:window-maximized="1"
     inkscape:current-layer="Layer_1" /><path
     d="m 13.5,6.5 c -2,-2 -5.1,-2 -7.1,0 -2,2 -2,5.1 0,7.1 2,2 5.1,2 7.1,0 2,-2 2,-5.2 0,-7.1 z m -6,1 C 8.7,6.3 10.5,6.2 11.9,7 L 7.1,11.9 C 6.2,10.5 6.3,8.7 7.5,7.5 z m 0.6,5.4 4.8,-4.8 c 0.9,1.4 0.7,3.2 -0.5,4.4 -1.2,1.2 -2.9,1.3 -4.3,0.4 z"
     id="path3"
     inkscape:connector-curvature="0"
     style="fill:#c94f50" /><g
     id="g5"
     transform="translate(2,2)"><path
       d="m 8,1.5 c 3.6,0 6.5,2.9 6.5,6.5 0,3.6 -2.9,6.5 -6.5,6.5 C 4.4,14.5 1.5,11.6 1.5,8 1.5,4.4 4.4,1.5 8,1.5 M 8,0 C 3.6,0 0,3.6 0,8 c 0,4.4 3.6,8 8,8 4.4,0 8,-3.6 8,-8 C 16,3.6 12.4,0 8,0 z"
       id="path7"
       inkscape:connector-curvature="0"
       style="fill:#c94f50" /></g></svg>