<?xml version="1.0" encoding="UTF-8" standalone="no"?>
<svg
   xmlns:dc="http://purl.org/dc/elements/1.1/"
   xmlns:cc="http://creativecommons.org/ns#"
   xmlns:rdf="http://www.w3.org/1999/02/22-rdf-syntax-ns#"
   xmlns:svg="http://www.w3.org/2000/svg"
   xmlns="http://www.w3.org/2000/svg"
   height="100%"
   width="100%"
   xml:space="preserve"
   enable-background="new 0 0 10 10"
   viewBox="0 0 20 20"
   y="0px"
   x="0px"
   id="Layer_1"
   version="1.1"><metadata
     id="metadata9"><rdf:RDF><cc:Work
         rdf:about=""><dc:format>image/svg+xml</dc:format><dc:type
           rdf:resource="http://purl.org/dc/dcmitype/StillImage" /><dc:title></dc:title></cc:Work></rdf:RDF></metadata><defs
     id="defs7" /><path
     style="fill:#ffffff"
     id="path3"
     d="m 10,5 c -2.8,0 -5,2.2 -5,5 0,2.8 2.2,5 5,5 2.8,0 5,-2.2 5,-5 C 15,7.2 12.8,5 10,5 z M 6.5,10 C 6.5,8.3 7.7,6.9 9.3,6.6 v 6.8 C 7.7,13.1 6.5,11.7 6.5,10 z m 4.2,3.4 V 6.6 c 1.6,0.3 2.8,1.7 2.8,3.4 0,1.7 -1.2,3.1 -2.8,3.4 z" /></svg>