<?xml version="1.0" encoding="UTF-8" standalone="no"?>
<!-- Created with Inkscape (http://www.inkscape.org/) -->

<svg
   xmlns:dc="http://purl.org/dc/elements/1.1/"
   xmlns:cc="http://creativecommons.org/ns#"
   xmlns:rdf="http://www.w3.org/1999/02/22-rdf-syntax-ns#"
   xmlns:svg="http://www.w3.org/2000/svg"
   xmlns="http://www.w3.org/2000/svg"
   version="1.1"
   width="20"
   height="20"
   viewBox="0 0 20.000001 20"
   id="Layer_1"
   xml:space="preserve"><metadata
     id="metadata13"><rdf:RDF><cc:Work
         rdf:about=""><dc:format>image/svg+xml</dc:format><dc:type
           rdf:resource="http://purl.org/dc/dcmitype/StillImage" /><dc:title></dc:title></cc:Work></rdf:RDF></metadata><defs
     id="defs11" /><path
     d="M 16.000001,9.9999992 C 16.000001,13.3132 13.312,16 10.000001,16 6.6856003,16 4.0000002,13.3132 4.0000002,9.9999992 c 0,-3.3131997 2.6856001,-5.9999998 6.0000008,-5.9999998 3.311999,0 6,2.6856002 6,5.9999998"
     id="path5"
     style="fill:#6fc062" /><path
     d="m 18.215773,10 c 0,2.270457 -0.917093,4.319696 -2.405138,5.809943 -1.490425,1.487869 -3.538718,2.406042 -5.809445,2.406042 -2.270727,0 -4.3202096,-0.918173 -5.8094449,-2.406042 C 2.7025099,14.319696 1.7842275,12.270457 1.7842275,10 c 0,-2.2716459 0.9182824,-4.3196954 2.4063282,-5.8087535 C 5.6809804,2.7021884 7.730463,1.7840153 10.00119,1.7840153 c 2.270727,0 4.31902,0.9181731 5.809445,2.4060419 C 17.29868,5.6803046 18.215773,7.7283541 18.215773,10 h 1.784228 C 19.998811,4.4766889 15.525158,0 10.00119,0 4.478411,0 0,4.4766889 0,10 c 0,5.523311 4.478411,9.998811 10.00119,10 5.523968,-0.0012 9.997621,-4.479067 9.998811,-10 h -1.784228 z"
     id="path7"
     style="fill:#6fc062" /></svg>