<?xml version="1.0" encoding="UTF-8" standalone="no"?>
<svg
   xmlns:dc="http://purl.org/dc/elements/1.1/"
   xmlns:cc="http://creativecommons.org/ns#"
   xmlns:rdf="http://www.w3.org/1999/02/22-rdf-syntax-ns#"
   xmlns:svg="http://www.w3.org/2000/svg"
   xmlns="http://www.w3.org/2000/svg"
   version="1.1"
   id="Layer_1"
   x="0px"
   y="0px"
   viewBox="0 0 20 20"
   enable-background="new 0 0 10 10"
   xml:space="preserve"
   width="100%"
   height="100%"><metadata
     id="metadata9"><rdf:RDF><cc:Work
         rdf:about=""><dc:format>image/svg+xml</dc:format><dc:type
           rdf:resource="http://purl.org/dc/dcmitype/StillImage" /><dc:title></dc:title></cc:Work></rdf:RDF></metadata><defs
     id="defs7" /><path
     d="m 13.514851,6.4851485 c -1.980198,-1.980198 -5.0495045,-1.980198 -7.0297025,0 -1.980198,1.980198 -1.980198,5.0495045 0,7.0297025 1.980198,1.980199 5.0495045,1.980199 7.0297025,0 1.980199,-1.980198 1.980199,-5.1485144 0,-7.0297025 z M 7.5742574,7.4752475 C 8.7623762,6.2871287 10.544554,6.1881188 11.930693,6.980198 L 7.1782178,11.831683 C 6.2871287,10.445545 6.3861386,8.6633663 7.5742574,7.4752475 z M 8.1683168,12.821782 12.920792,8.0693069 c 0.891089,1.3861386 0.693069,3.1683171 -0.495049,4.3564361 -1.188119,1.188118 -2.8712876,1.287128 -4.2574262,0.396039 z"
     id="path3"
     style="fill:#c94f50" /></svg>