<?xml version="1.0" encoding="UTF-8" standalone="no"?>
<!-- Created with Inkscape (http://www.inkscape.org/) -->

<svg
   xmlns:dc="http://purl.org/dc/elements/1.1/"
   xmlns:cc="http://creativecommons.org/ns#"
   xmlns:rdf="http://www.w3.org/1999/02/22-rdf-syntax-ns#"
   xmlns:svg="http://www.w3.org/2000/svg"
   xmlns="http://www.w3.org/2000/svg"
   version="1.1"
   width="16"
   height="16"
   viewBox="0 0 16.000001 16"
   id="Layer_1"
   xml:space="preserve"><metadata
     id="metadata9"><rdf:RDF><cc:Work
         rdf:about=""><dc:format>image/svg+xml</dc:format><dc:type
           rdf:resource="http://purl.org/dc/dcmitype/StillImage" /><dc:title></dc:title></cc:Work></rdf:RDF></metadata><defs
     id="defs7" /><path
     d="m 8.0000005,13.6665 c -2.945,-10e-4 -5.33,-2.386 -5.332,-5.3320001 h 1.582 c 0,1.04 0.418,1.9710001 1.098,2.6530001 0.682,0.68 1.613,1.098 2.652,1.098 1.039,0 1.973,-0.418 2.6540005,-1.098 0.68,-0.682 1.098,-1.6130001 1.098,-2.6520001 h 1.58 C 13.332,11.2805 10.945,13.6655 8.0000005,13.6665 z m -1.582,-9.833 c 0,0.826 -0.672,1.5 -1.5,1.5 -0.828,0 -1.5,-0.674 -1.5,-1.5 0,-0.83 0.672,-1.5 1.5,-1.5 0.828,0 1.5,0.669 1.5,1.5 z m 6.0000005,0 c 0,0.826 -0.672001,1.5 -1.5,1.5 -0.828001,0 -1.5000005,-0.674 -1.5000005,-1.5 0,-0.83 0.6719995,-1.5 1.5000005,-1.5 0.827999,0 1.5,0.669 1.5,1.5 z"
     id="path3"
     style="fill:#ffffff" /></svg>