<?xml version="1.0" encoding="UTF-8" standalone="no"?>
<!-- Created with Inkscape (http://www.inkscape.org/) -->

<svg
   xmlns:dc="http://purl.org/dc/elements/1.1/"
   xmlns:cc="http://creativecommons.org/ns#"
   xmlns:rdf="http://www.w3.org/1999/02/22-rdf-syntax-ns#"
   xmlns:svg="http://www.w3.org/2000/svg"
   xmlns="http://www.w3.org/2000/svg"
   version="1.1"
   width="20"
   height="20"
   viewBox="0 0 19.999999 20"
   id="Layer_1"
   xml:space="preserve"><metadata
     id="metadata21"><rdf:RDF><cc:Work
         rdf:about=""><dc:format>image/svg+xml</dc:format><dc:type
           rdf:resource="http://purl.org/dc/dcmitype/StillImage" /><dc:title></dc:title></cc:Work></rdf:RDF></metadata><defs
     id="defs19" /><g
     transform="matrix(1.2984701,0,0,1.2564393,2.489036e-4,0)"
     id="g3"><path
       d="m 9.429,11.411 c 4.71,1.681 3.195,4.507 3.195,4.507 H 2.666 c 0,0 -0.773,-3.161 3.465,-4.507 0,0 1.682,1.412 3.298,0 z"
       id="path5"
       style="fill:#ffffff" /><path
       d="m 4.92,6.682 c 0,0 0.27,3.938 2.793,3.938 2.523,0 2.826,-3.668 2.826,-3.668 0,0 0.101,-3.194 -2.826,-3.194 -2.927,0 -2.793,2.924 -2.793,2.924 z"
       id="path7"
       style="fill:#ffffff" /><path
       d="M 3.359,7.276 C 3.354,7.184 3.343,6.756 3.452,6.194 2.931,6.094 2.611,5.858 2.611,5.858 -0.539,6.903 0.042,9.088 0.042,9.088 H 3.693 C 3.428,8.178 3.368,7.413 3.361,7.313 L 3.359,7.276 z"
       id="path9"
       style="fill:#ffffff" /><path
       d="m 12.1,7.522 v 0.041 l -0.004,0.04 c -0.035,0.427 -0.127,0.944 -0.29,1.485 h 3.554 c 0,0 0.583,-2.186 -2.567,-3.23 0,0 -0.319,0.234 -0.835,0.335 0.153,0.684 0.146,1.221 0.142,1.329 z"
       id="path11"
       style="fill:#ffffff" /><path
       d="M 5.904,2.525 C 5.923,2.403 5.93,2.328 5.93,2.328 5.93,2.328 6.002,0 3.88,0 1.758,0 1.855,2.131 1.855,2.131 c 0,0 0.18,2.606 1.781,2.85 C 3.812,4.468 4.097,3.918 4.558,3.436 4.859,3.121 5.297,2.774 5.904,2.525 z"
       id="path13"
       style="fill:#ffffff" /><path
       d="M 11.758,4.99 C 13.422,4.82 13.627,2.328 13.627,2.328 13.627,2.328 13.699,0 11.576,0 9.455,0 9.553,2.131 9.553,2.131 c 0,0 0.013,0.183 0.061,0.454 0.519,0.238 0.905,0.548 1.18,0.832 0.468,0.484 0.77,1.042 0.964,1.573 z"
       id="path15"
       style="fill:#ffffff" /></g></svg>