<?xml version="1.0" encoding="UTF-8" standalone="no"?>
<!-- Created with Inkscape (http://www.inkscape.org/) -->

<svg
   xmlns:dc="http://purl.org/dc/elements/1.1/"
   xmlns:cc="http://creativecommons.org/ns#"
   xmlns:rdf="http://www.w3.org/1999/02/22-rdf-syntax-ns#"
   xmlns:svg="http://www.w3.org/2000/svg"
   xmlns="http://www.w3.org/2000/svg"
   version="1.1"
   width="20"
   height="24"
   viewBox="0 0 19.999999 23.999999"
   id="Layer_1"
   xml:space="preserve"><metadata
     id="metadata9"><rdf:RDF><cc:Work
         rdf:about=""><dc:format>image/svg+xml</dc:format><dc:type
           rdf:resource="http://purl.org/dc/dcmitype/StillImage" /><dc:title></dc:title></cc:Work></rdf:RDF></metadata><defs
     id="defs7" /><path
     d="M 3.7552096,2.1052196 C 2.2000209,3.2278156 0.97391293,4.8483037 0.42749526,6.7130604 -0.26962297,8.9811201 -0.12302311,11.52671 0.93393115,13.658603 c 1.08155845,2.227522 3.08987405,3.923889 5.38011245,4.760639 1.9119493,0.751515 4.0381604,0.858578 6.0290474,0.379396 -0.23784,1.865796 -1.033375,3.597504 -1.970384,5.201361 2.937123,-1.936478 5.354483,-4.59017 7.324867,-7.512038 1.449596,-2.202575 2.41326,-4.826124 2.292289,-7.5037226 C 19.883245,6.6309446 18.748378,4.3909498 17.066067,2.7891716 15.244333,1.0585028 12.771614,0.07311292 10.280441,0.00658872 7.9522715,-0.0807243 5.6230764,0.70405348 3.7552096,2.1052196 z"
     id="path3"
     style="fill:#ffffff" /></svg>