<?xml version="1.0" encoding="UTF-8" standalone="no"?>
<!-- Created with Inkscape (http://www.inkscape.org/) -->

<svg
   xmlns:dc="http://purl.org/dc/elements/1.1/"
   xmlns:cc="http://creativecommons.org/ns#"
   xmlns:rdf="http://www.w3.org/1999/02/22-rdf-syntax-ns#"
   xmlns:svg="http://www.w3.org/2000/svg"
   xmlns="http://www.w3.org/2000/svg"
   version="1.1"
   width="20"
   height="20"
   viewBox="0 0 20 20"
   id="Layer_1"
   xml:space="preserve"><metadata
     id="metadata9"><rdf:RDF><cc:Work
         rdf:about=""><dc:format>image/svg+xml</dc:format><dc:type
           rdf:resource="http://purl.org/dc/dcmitype/StillImage" /><dc:title></dc:title></cc:Work></rdf:RDF></metadata><defs
     id="defs7" /><path
     d="M 20,9.0087092 C 20,8.7564038 19.791226,8.5502051 19.541467,8.5502051 h -0.845341 c -0.254884,0 -0.521294,-0.1972336 -0.591739,-0.4418545 L 16.956772,5.4290471 c -0.121678,-0.2190062 -0.08197,-0.5443136 0.09606,-0.7261783 l 0.571245,-0.5699283 c 0.179315,-0.1793033 0.179315,-0.4700307 0,-0.649334 L 16.249758,2.1080942 c -0.178034,-0.1793032 -0.470061,-0.1793032 -0.653218,0 L 14.977904,2.7279713 C 14.796027,2.909836 14.466857,2.9585041 14.242713,2.8432377 L 11.911621,1.9082992 C 11.668266,1.8404201 11.465896,1.5765881 11.465896,1.3217213 V 0.45722335 C 11.465896,0.20747951 11.259684,0 11.009924,0 H 9.0630804 C 8.8107589,0 8.6032661,0.20747951 8.6032661,0.45722335 V 1.3217213 c 0,0.2548668 -0.1998079,0.5199795 -0.440602,0.595543 L 5.4601345,3.0737705 C 5.2423951,3.2005635 4.9196286,3.1582991 4.739033,2.9815573 L 4.1306436,2.3744877 c -0.1767531,-0.1780226 -0.4700608,-0.1780226 -0.6480948,0 l -1.3756004,1.376793 c -0.1805955,0.1793033 -0.1805955,0.4700307 0,0.649334 L 2.7665706,5.0653176 C 2.9497278,5.2446208 2.998399,5.5724897 2.8805636,5.795338 L 1.960935,8.1070698 C 1.8930516,8.3516907 1.6292027,8.5502051 1.3743196,8.5502051 H 0.45725264 C 0.20493116,8.5502051 0,8.7564038 0,9.0087092 V 10.95415 c 0,0.253586 0.20493116,0.461065 0.45725264,0.461065 H 1.3743196 c 0.2548831,0 0.5212936,0.197234 0.5943003,0.440574 l 1.129683,2.658811 c 0.1293628,0.219007 0.083253,0.544314 -0.092219,0.722337 l -0.632725,0.631403 c -0.1780339,0.179303 -0.1780339,0.470031 0,0.649334 l 1.3781621,1.375513 c 0.1793147,0.179303 0.4713416,0.179303 0.6468139,0 l 0.6762728,-0.672388 c 0.1805956,-0.179303 0.504643,-0.22669 0.7300673,-0.106301 l 2.3579891,0.940061 c 0.2407941,0.07044 0.440602,0.335554 0.440602,0.586578 v 0.899078 C 8.6032661,19.793801 8.8107589,20 9.0630804,20 h 1.9468456 c 0.24976,0 0.455972,-0.206199 0.455972,-0.459785 v -0.899078 c 0,-0.251024 0.199808,-0.516137 0.445725,-0.59042 l 2.637208,-1.119365 c 0.220301,-0.124231 0.540506,-0.08069 0.722383,0.09606 l 0.595581,0.599385 c 0.178034,0.178023 0.471341,0.178023 0.649375,0 l 1.378162,-1.378074 c 0.178034,-0.178022 0.178034,-0.471311 0,-0.648053 L 17.257765,14.966701 C 17.082293,14.787398 17.032341,14.459529 17.152738,14.23668 l 0.955491,-2.378329 c 0.0666,-0.243341 0.333013,-0.441855 0.587897,-0.444416 h 0.845341 C 19.791226,11.413935 20,11.207736 20,10.95543 V 9.0087092 z m -9.99936,4.2597338 c -1.8072362,0 -3.2686515,-1.463883 -3.2686515,-3.2697236 0,-1.8058402 1.4614153,-3.2684428 3.2686515,-3.2684428 1.804675,0 3.271214,1.4626026 3.271214,3.2684428 0,1.8058406 -1.466539,3.2697236 -3.271214,3.2697236 z"
     id="path3"
     style="fill:#ffffff" /></svg>